HIERARCHY
ROOT Hips
{
	OFFSET -3.958830 18.904000 13.208200
	CHANNELS 6 Xposition Yposition Zposition Zrotation Yrotation Xrotation 
	JOINT LHipJoint
	{
		OFFSET 0.000000 0.000000 0.000000
		CHANNELS 3 Zrotation Yrotation Xrotation
		JOINT LeftUpLeg
		{
			OFFSET 1.800000 -1.400000 0.085000
			CHANNELS 3 Zrotation Yrotation Xrotation
			JOINT LeftLeg
			{
				OFFSET 2.215000 -6.000000 0.000000
				CHANNELS 3 Zrotation Yrotation Xrotation
				JOINT LeftFoot
				{
					OFFSET 2.500000 -6.900000 0.000000
					CHANNELS 3 Zrotation Yrotation Xrotation
					JOINT LeftToeBase
					{
						OFFSET 0.200000 -0.500000 1.950000
						CHANNELS 3 Zrotation Yrotation Xrotation
						End Site
						{
							OFFSET 0.000000 0.000000 0.000000
						}
					}
				}
			}
		}
	}
	JOINT RHipJoint
	{
		OFFSET 0.000000 0.000000 0.000000
		CHANNELS 3 Zrotation Yrotation Xrotation
		JOINT RightUpLeg
		{
			OFFSET -1.800000 -1.400000 0.085000
			CHANNELS 3 Zrotation Yrotation Xrotation
			JOINT RightLeg
			{
				OFFSET -2.215000 -6.000000 0.000000
				CHANNELS 3 Zrotation Yrotation Xrotation
				JOINT RightFoot
				{
					OFFSET -2.500000 -6.900000 0.000000
					CHANNELS 3 Zrotation Yrotation Xrotation
					JOINT RightToeBase
					{
						OFFSET -0.200000 -0.500000 1.950000
						CHANNELS 3 Zrotation Yrotation Xrotation
						End Site
						{
							OFFSET 0.000000 0.000000 0.000000
						}
					}
				}
			}
		}
	}
	JOINT LowerBack
	{
		OFFSET 0.000000 0.000000 0.000000
		CHANNELS 3 Zrotation Yrotation Xrotation
		JOINT Spine
		{
			OFFSET -0.087000 1.940000 -0.288900
			CHANNELS 3 Zrotation Yrotation Xrotation
			JOINT Spine1
			{
				OFFSET 0.000000 1.950000 0.060000
				CHANNELS 3 Zrotation Yrotation Xrotation
				JOINT Neck
				{
					OFFSET 0.000000 0.000000 0.000000
					CHANNELS 3 Zrotation Yrotation Xrotation
					JOINT Neck1
					{
						OFFSET 0.000000 1.600000 0.340000
						CHANNELS 3 Zrotation Yrotation Xrotation
						JOINT Head
						{
							OFFSET 0.000000 1.667000 -0.240000
							CHANNELS 3 Zrotation Yrotation Xrotation
							End Site
							{
								OFFSET 0.000000 0.000000 0.000000
							}
						}
					}
				}
				JOINT LeftShoulder
				{
					OFFSET 0.000000 0.000000 0.000000
					CHANNELS 3 Zrotation Yrotation Xrotation
					JOINT LeftArm
					{
						OFFSET 2.700000 1.550000 -0.730000
						CHANNELS 3 Zrotation Yrotation Xrotation
						JOINT LeftForeArm
						{
							OFFSET 5.450000 0.000000 0.000000
							CHANNELS 3 Zrotation Yrotation Xrotation
							JOINT LeftHand
							{
								OFFSET 3.450000 0.000000 0.000000
								CHANNELS 3 Zrotation Yrotation Xrotation
								JOINT LeftHandIndex1
								{
									OFFSET 0.750000 0.000000 0.000000
									CHANNELS 3 Zrotation Yrotation Xrotation
									End Site
									{
										OFFSET 0.000000 0.000000 0.000000
									}
								}
							}
						}
					}
				}
				JOINT RightShoulder
				{
					OFFSET 0.000000 0.000000 0.000000
					CHANNELS 3 Zrotation Yrotation Xrotation
					JOINT RightArm
					{
						OFFSET -2.700000 1.550000 -0.730000
						CHANNELS 3 Zrotation Yrotation Xrotation
						JOINT RightForeArm
						{
							OFFSET -5.450000 0.000000 0.000000
							CHANNELS 3 Zrotation Yrotation Xrotation
							JOINT RightHand
							{
								OFFSET -3.450000 0.000000 0.000000
								CHANNELS 3 Zrotation Yrotation Xrotation
								JOINT RightHandIndex1
								{
									OFFSET -0.750000 0.000000 0.000000
									CHANNELS 3 Zrotation Yrotation Xrotation
									End Site
									{
										OFFSET 0.000000 0.000000 0.000000
									}
								}
							}
						}
					}
				}
			}
		}
	}
}
MOTION
Frames: 6
Frame Time: 0.016667
-0.368860 16.614230 -5.220700 1.872331 27.750491 10.202614 -14.466549 7.844353 4.296987 9.536523 5.255277 -47.907210 -28.036552 20.977241 27.207281 0.662532 9.628249 1.232162 -0.153520 0.292560 -0.756020 19.473393 -12.666763 2.914819 1.880360 1.073996 -16.026604 7.602610 -3.371261 3.549590 0.139561 -3.930330 2.758805 0.509930 1.168290 0.116310 -6.142718 10.133148 -9.010145 6.225084 20.618706 12.607008 -3.619711 22.270111 22.124655 4.206077 -7.504060 -16.814809 -0.431358 -7.943959 20.475968 1.554040 -13.226840 -1.496640 27.107082 -16.905185 7.898730 8.159687 7.735475 -5.914289 17.696864 14.438370 0.673517 -6.621765 2.061819 -0.709390 0.630210 -0.596290 0.277170 -27.397045 39.165082 -17.913920 -2.093142 55.690733 -31.838798 -33.816905 51.433922 -21.572365 5.775813 -3.451384 -0.210330 0.546930 0.380540 0.645380 
-0.385390 16.611870 -5.233570 2.171981 28.601333 10.350830 -14.538532 7.983060 4.410708 8.557765 4.281997 -48.976862 -27.938692 20.652835 27.486835 0.705151 9.545241 1.277973 -0.197840 0.264040 -0.810300 19.389913 -12.459877 2.902748 1.535215 1.095284 -15.941614 8.071652 -3.342119 3.162694 0.163321 -3.900575 2.794742 0.475350 1.180990 0.102690 -5.943373 9.490756 -8.859180 5.307568 19.743110 12.873271 -3.131915 21.009373 21.500439 3.547603 -7.058943 -16.279903 -0.585679 -8.036181 20.685461 2.038360 -13.701360 -1.312850 25.995653 -16.676887 8.430498 6.710987 9.130897 -5.502617 17.843260 13.295885 0.659777 -6.493740 2.065107 -0.720430 0.627330 -0.598150 0.281630 -25.856044 39.096076 -15.924078 -4.501780 58.343979 -32.532389 -33.068539 50.640480 -21.195588 5.609393 -3.364047 -0.203230 0.550370 0.389510 0.669050 
-0.431930 16.593160 -5.214680 1.831545 26.795823 10.651724 -14.637645 7.961222 4.465677 8.612204 4.648435 -49.593213 -29.053457 20.650758 26.292989 0.734190 9.495420 1.291546 -0.196210 0.264820 -0.809220 19.311919 -12.376162 2.897361 2.370667 1.007118 -16.132485 7.891807 -3.230804 2.598304 0.156013 -3.804667 2.828823 0.458260 1.158460 0.097420 -5.667447 9.406487 -8.559608 2.609208 21.049962 12.107817 -0.978140 21.455408 20.633947 3.087523 -6.477126 -16.025941 -0.205184 -8.476158 21.305868 2.503050 -14.266570 -1.749100 24.789297 -17.119125 8.452854 5.071478 9.654516 -5.086966 17.788065 12.114217 0.619853 -6.357254 2.096508 -0.698880 0.596600 -0.572470 0.285570 -24.309366 37.791421 -16.093124 1.152190 61.276323 -26.992621 -31.771989 50.332601 -21.022422 5.766812 -3.306083 -0.191300 0.547720 0.378440 0.675650 
-0.472200 16.578230 -5.219410 1.520084 25.328375 10.335192 -15.237472 9.620821 4.960711 7.289844 4.367303 -51.299185 -28.394827 20.319132 26.497897 0.735332 9.393266 1.255495 -0.137940 0.331940 -0.757180 18.543133 -11.198988 2.984513 3.229092 1.074854 -15.254715 8.208479 -2.849919 1.942999 0.187643 -3.372455 2.909818 0.464210 1.064140 0.091830 -3.741519 4.330391 -9.264025 -3.261166 15.339279 16.906627 -3.280213 15.389018 21.424887 2.701083 -6.236397 -24.899824 -3.268922 -8.873811 23.119862 3.548690 -14.864020 -3.788980 21.043250 -0.383005 0.443588 2.914365 11.803833 -3.676210 18.315566 9.270695 0.572024 -5.995119 2.294430 -0.632880 0.510260 -0.488470 0.282570 -23.367005 24.855895 13.382585 -93.959810 56.059056 -148.267416 -4.938633 53.101958 -20.686153 10.619420 -3.555441 -0.152320 0.532610 0.340380 0.668940 
-0.504550 16.560090 -5.234820 1.038887 27.274625 11.320820 -15.146144 9.797563 4.914734 4.553524 2.259453 -54.205136 -25.915455 19.577143 28.723813 0.669235 9.238482 1.328086 -0.128100 0.348180 -0.771740 18.704838 -10.789455 2.850755 4.014402 1.206423 -15.869643 8.159831 -2.607063 0.830006 0.183471 -3.249937 2.992204 0.470340 1.059950 0.093230 -4.188697 3.516199 -8.483215 -2.174231 13.789390 12.639229 -3.807228 13.752743 27.227899 1.757111 -3.978910 -24.463375 -1.999053 -9.569792 20.408248 4.106690 -15.752170 -4.509320 18.198345 1.603695 -0.299595 2.997649 11.268468 -3.968417 18.261792 11.038546 0.761020 -5.930740 2.195400 -0.619740 0.497920 -0.475590 0.291320 -20.571704 17.843592 29.512490 -99.277057 39.756720 -133.850933 -19.410697 53.020345 -19.752928 7.932182 -4.218506 -0.143940 0.543770 0.343830 0.677570 
-0.535240 16.546250 -5.246100 -0.212361 28.591364 11.374038 -15.043756 9.720480 4.905193 2.554086 0.412953 -55.444778 -23.212433 18.365455 30.306696 0.601450 8.795510 1.432842 -0.097780 0.371990 -0.712590 18.814241 -10.840938 2.921957 5.492520 1.157236 -16.029280 8.093801 -2.401031 -0.689796 0.131159 -3.103180 3.013743 0.439420 0.937600 0.085990 -4.483649 3.953956 -8.321051 0.100369 14.118980 12.658360 -3.906454 14.770416 24.516525 0.508917 -2.984023 -21.118009 -0.670652 -11.738803 21.322564 4.717660 -17.474790 -6.554580 13.988761 -1.506133 1.546332 6.809643 6.783768 -3.756201 17.555284 13.264286 0.822380 -5.832084 2.129792 -0.536380 0.396060 -0.380230 0.263860 -14.706081 17.759729 29.395672 -97.053973 49.860654 -123.109210 -29.416105 53.085703 -21.520173 7.279445 -4.514508 -0.103230 0.513610 0.314840 0.657150 
